<svg id="Layer_1" data-name="Layer 1" xmlns="http://www.w3.org/2000/svg" viewBox="0 0 468.41 444.46"><defs><style>.cls-1{fill:#f5f5f5;}.cls-2{fill:#e0e0e0;}.cls-3{fill:#fff;}.cls-4{fill:none;stroke:#fbfbfb;stroke-miterlimit:10;stroke-width:0.25px;}.cls-5{fill:#fafafa;}.cls-6{fill:#ebebeb;}.cls-7{fill:#263238;}.cls-8{fill:#ff725e;}.cls-9{fill:#2d2317;}.cls-10{fill:#584730;}.cls-11{fill:#455a64;}.cls-12{opacity:0.3;}.cls-13{fill:#ffbf9d;}.cls-14{fill:#ff9a6c;}.cls-15{opacity:0.1;}.cls-16{fill:#ae7461;}.cls-17{fill:#6f4439;}</style></defs><title>SVG ERROR</title><g id="Plant"><path class="cls-1" d="M39.23,475.74c-1.33-1.14-4.29-4.74-2-8.93.84-1.54,2.61-2.3,4.22-3a17.26,17.26,0,0,0,4.63-2.4c2.51-2.14,3.2-5.68,4.87-8.53,1.91-3.27,5.48-5.72,9.25-5.55,4.32.2,7.92,3.72,9.55,7.75s1.69,8.49,1.72,12.83c0,2.4-.09,5.11-1.85,6.73s-4.07,1.51-6.28,1.45l-23.6-.73" transform="translate(3.94 -43.19)"/><path class="cls-2" d="M84.38,410.83H22.3l11.18,66.68a7.46,7.46,0,0,0,5.3,5.94l.22.06a4.92,4.92,0,0,0,.55.14,8.68,8.68,0,0,0,1.26.15s0,0,0,.06l.3-.05H68.8a7.61,7.61,0,0,0,1.52-.15,7.48,7.48,0,0,0,6.28-6.52L82,431.2l.24-1.83h0l2.13-18.19ZM72.67,453.36H66.3L66.94,434h7.38ZM74.94,434H81l-2.27,19.35H73.29Zm-18.2,40.8L56.35,458h9.17L65,474.81ZM46.82,458h8.91l.39,16.81h-8Zm.69,16.81H40c-.71-4.54-1.63-10.44-2.63-16.81h8.8Zm-1-21.45L45,434H55.19l.45,19.35Zm9.79,0L55.8,434H66.32l-.64,19.35Zm-.56-24-.41-17.92H67.07l-.6,17.92Zm-.61,0H44.6l-1.39-17.92H54.67Zm-11.1,0H32.89c-.39-2.47-.76-4.82-1.1-6.93-1.16-7.25-1.59-10-1.83-11H42.59Zm.36,4.64,1.5,19.35H36.67c-.31-2-.62-3.95-.93-5.94-.72-4.57-1.44-9.13-2.11-13.41Zm-8.29,19.35h-6L26.81,434H33C34,440,35,446.65,36.05,453.36Zm.73,4.64c.91,5.82,1.81,11.55,2.63,16.81H33.65L30.84,458Zm28.81,16.81L66.14,458h6.13l-1.44,16.81Zm1.51-45.44.6-17.92h8.56l-1.53,17.92ZM29.37,411.45c.25,1.3,1.38,8.35,2.9,17.92H26l-3-17.92Zm46.88,63.36h-4.8L72.89,458h5.33Zm5.33-45.44H75.33l1.53-17.92h6.82Z" transform="translate(3.94 -43.19)"/><rect class="cls-2" x="37.23" y="9.75" width="100.1" height="145.09"/><rect class="cls-1" x="32.22" y="9.75" width="100.1" height="145.09"/><rect class="cls-3" x="44.66" y="25.46" width="75.23" height="113.66"/><path class="cls-2" d="M115.94,182.31s0-.19,0-.56,0-.91,0-1.61c0-1.43,0-3.52,0-6.23,0-5.45,0-13.39-.07-23.41,0-20-.07-48.42-.12-81.85l.25.25-75.22,0h0l.27-.27c0,42.88,0,82.41-.06,113.66l-.22-.22,54.75.11,15.13.06,4,0,1.38,0s-.44,0-1.33,0l-3.93,0-15.08.06-54.89.11h-.22v-.22c0-31.25,0-70.78-.06-113.66v-.27h.28l75.22,0h.25v.25c-.05,33.49-.09,61.93-.12,82,0,10,0,17.92-.07,23.36,0,2.69,0,4.77,0,6.18,0,.69,0,1.21,0,1.58S115.94,182.31,115.94,182.31Z" transform="translate(3.94 -43.19)"/><path class="cls-4" d="M112.45,69.41" transform="translate(3.94 -43.19)"/><path class="cls-2" d="M128.66,52.94a16.7,16.7,0,0,1-1.78,2.59c-1.16,1.55-2.81,3.67-4.7,6s-3.64,4.31-5,5.75a17.59,17.59,0,0,1-2.2,2.25,18,18,0,0,1,1.91-2.5l4.82-5.85,4.81-5.85A18.35,18.35,0,0,1,128.66,52.94Z" transform="translate(3.94 -43.19)"/><path class="cls-3" d="M116.32,181.94a93.49,93.49,0,0,0,13.12,16.41" transform="translate(3.94 -43.19)"/><path class="cls-2" d="M129.45,198.35a14.82,14.82,0,0,1-2.29-2.08,71,71,0,0,1-5-5.58,73.61,73.61,0,0,1-4.36-6.06,14.72,14.72,0,0,1-1.53-2.69,20.74,20.74,0,0,1,1.85,2.47c1.1,1.55,2.65,3.67,4.46,5.93s3.54,4.24,4.8,5.66A23.09,23.09,0,0,1,129.45,198.35Z" transform="translate(3.94 -43.19)"/><path class="cls-3" d="M28.26,197.91l13.11-16.18" transform="translate(3.94 -43.19)"/><path class="cls-2" d="M41.38,181.73A99.89,99.89,0,0,1,35,190a99.3,99.3,0,0,1-6.77,7.92,99.89,99.89,0,0,1,6.34-8.26A99.3,99.3,0,0,1,41.38,181.73Z" transform="translate(3.94 -43.19)"/><path class="cls-2" d="M28.28,52.94a88.9,88.9,0,0,1,6.36,7.61,89,89,0,0,1,5.94,8,88.9,88.9,0,0,1-6.36-7.61A90.76,90.76,0,0,1,28.28,52.94Z" transform="translate(3.94 -43.19)"/><rect class="cls-2" x="71.26" y="48.54" width="25.19" height="71.52"/><rect class="cls-2" x="346.58" y="0.03" width="94.49" height="98.5"/><rect class="cls-5" x="340.18" y="0.03" width="94.49" height="98.5"/><path class="cls-2" d="M430.76,141.75H336.21V43.19h94.55Zm-94.49-.06H430.7V43.25H336.27Z" transform="translate(3.94 -43.19)"/><rect class="cls-3" x="352.88" y="13.27" width="69.09" height="72.02"/><path class="cls-2" d="M348.94,129a11.59,11.59,0,0,1-1.7,2c-1.1,1.16-2.65,2.74-4.39,4.45s-3.34,3.24-4.51,4.32a11,11,0,0,1-2,1.66,10.69,10.69,0,0,1,1.7-2c1.1-1.16,2.66-2.74,4.4-4.46s3.34-3.25,4.52-4.33A10.48,10.48,0,0,1,348.94,129Z" transform="translate(3.94 -43.19)"/><path class="cls-2" d="M418,128.78a11.59,11.59,0,0,1,2,1.7c1.16,1.1,2.74,2.65,4.45,4.39s3.24,3.34,4.32,4.51a11,11,0,0,1,1.66,2,10.69,10.69,0,0,1-2-1.7c-1.16-1.1-2.74-2.66-4.46-4.4s-3.25-3.34-4.33-4.52A11.59,11.59,0,0,1,418,128.78Z" transform="translate(3.94 -43.19)"/><path class="cls-2" d="M417.84,56.65a11.59,11.59,0,0,1,1.7-2c1.1-1.16,2.65-2.74,4.39-4.45s3.34-3.24,4.51-4.32a11,11,0,0,1,2-1.66,10.69,10.69,0,0,1-1.7,2c-1.1,1.16-2.66,2.74-4.4,4.46S421,53.92,419.82,55A10.12,10.12,0,0,1,417.84,56.65Z" transform="translate(3.94 -43.19)"/><path class="cls-2" d="M348.76,56.83a11.59,11.59,0,0,1-2-1.7c-1.16-1.1-2.74-2.65-4.45-4.39s-3.24-3.34-4.32-4.51a11,11,0,0,1-1.66-2,10.69,10.69,0,0,1,2,1.7c1.16,1.1,2.74,2.66,4.46,4.4s3.25,3.34,4.33,4.52A11.15,11.15,0,0,1,348.76,56.83Z" transform="translate(3.94 -43.19)"/><path class="cls-2" d="M417.84,128.48a1.88,1.88,0,0,1,0-.35c0-.25,0-.58,0-1,0-.9,0-2.2,0-3.89,0-3.41,0-8.38-.07-14.68,0-12.61-.08-30.58-.14-52.1l.27.27-68.89,0h0l.31-.31c0,26.43,0,51.16,0,72l-.26-.26,49.89.13,14,.07,3.71,0h1l.32,0a1.57,1.57,0,0,1-.3,0h-.93l-3.66,0-13.95.07-50.05.13h-.26v-.26c0-20.86,0-45.58,0-72v-.31H349l68.89,0h.27v.27c-.06,21.59-.1,39.61-.14,52.27,0,6.28-.05,11.22-.07,14.62,0,1.66,0,3,0,3.84,0,.42,0,.74,0,1S417.85,128.48,417.84,128.48Z" transform="translate(3.94 -43.19)"/><rect class="cls-6" x="375.9" y="37.75" width="23.05" height="23.05"/><polygon class="cls-1" points="290.57 409.04 290.57 439.15 334.6 439.15 383.17 439.15 383.17 409.04 290.57 409.04"/><polygon class="cls-2" points="286.68 400.62 286.68 409.04 386.41 409.04 386.41 400.62 334.6 400.62 286.68 400.62"/><polygon class="cls-2" points="336.55 439.15 383.17 439.15 383.17 409.04 386.41 409.04 386.41 400.62 334.6 400.62 334.6 408.26 336.55 439.15"/><rect class="cls-2" x="303.52" y="413.89" width="18.78" height="4.53"/><rect class="cls-3" x="301.1" y="424.09" width="24.11" height="9.57"/><polygon class="cls-1" points="304.82 370.55 304.82 400.66 348.85 400.66 397.42 400.66 397.42 370.55 304.82 370.55"/><polygon class="cls-6" points="301.38 362.13 301.38 370.55 401.1 370.55 401.1 362.13 349.29 362.13 301.38 362.13"/><polygon class="cls-6" points="350.79 400.66 397.86 400.66 397.86 370.55 400.65 370.55 400.65 362.13 348.85 362.13 348.85 369.77 350.79 400.66"/><rect class="cls-2" x="317.77" y="375.4" width="18.78" height="4.53"/><rect class="cls-3" x="315.35" y="385.6" width="24.11" height="9.57"/><path class="cls-7" d="M464.47,483.33c0,.14-104.87.26-234.19.26s-234.22-.12-234.22-.26,104.84-.26,234.22-.26S464.47,483.18,464.47,483.33Z" transform="translate(3.94 -43.19)"/><path class="cls-7" d="M228,232.44v1h-4v-.79l2.3-2.72H224v-1h3.89v.79l-2.3,2.72Z" transform="translate(3.94 -43.19)"/><path class="cls-7" d="M220.67,228v2.36h-9.43v-1.85l5.38-6.36h-5.24v-2.36h9.11v1.85L215.11,228Z" transform="translate(3.94 -43.19)"/><path class="cls-7" d="M207.19,222.64v4.75h-19v-3.72L199,210.85H188.47V206.1h18.37v3.72L196,222.64Z" transform="translate(3.94 -43.19)"/><path class="cls-8" d="M202.25,165.19h-14.5v18.68h-26.9V165.19H109.28v-18L153,86.3h28.57l-39.72,57h19.79V126.71h26.06V143.3h14.5v21.89Z" transform="translate(3.94 -43.19)"/><path class="cls-8" d="M207.82,135.08c0-32.2,18.12-50.73,43.07-50.73s42.93,18.54,42.93,50.73-18.12,50.73-42.93,50.73S207.82,167.28,207.82,135.08Zm58.25,0c0-20.49-6.41-28.15-15.19-28.15s-15.33,7.67-15.33,28.15,6.41,28.15,15.33,28.15S266.07,155.57,266.07,135.08Z" transform="translate(3.94 -43.19)"/><path class="cls-8" d="M395.27,165.19h-14.5v18.68h-26.9V165.19H302.3v-18L346.06,86.3h28.57l-39.72,57H354.7V126.71h26.06V143.3h14.5v21.89Z" transform="translate(3.94 -43.19)"/><path class="cls-9" d="M202.25,165.19h-14.5v18.68h-26.9V165.19H109.28v-18L153,86.3h28.57l-39.72,57h19.79V126.71h26.06V143.3h14.5v21.89Z" transform="translate(3.94 -43.19)"/><path class="cls-9" d="M207.82,135.08c0-32.2,18.12-50.73,43.07-50.73s42.93,18.54,42.93,50.73-18.12,50.73-42.93,50.73S207.82,167.28,207.82,135.08Zm58.25,0c0-20.49-6.41-28.15-15.19-28.15s-15.33,7.67-15.33,28.15,6.41,28.15,15.33,28.15S266.07,155.57,266.07,135.08Z" transform="translate(3.94 -43.19)"/><path class="cls-9" d="M395.27,165.19h-14.5v18.68h-26.9V165.19H302.3v-18L346.06,86.3h28.57l-39.72,57H354.7V126.71h26.06V143.3h14.5v21.89Z" transform="translate(3.94 -43.19)"/><path class="cls-10" d="M194.17,165.19h-14.5v18.68h-26.9V165.19H101.2v-18L145,86.3h28.57l-39.72,57H153.6V126.71h26.06V143.3h14.5v21.89Z" transform="translate(3.94 -43.19)"/><path class="cls-10" d="M199.74,135.08c0-32.2,18.12-50.73,43.07-50.73s42.93,18.54,42.93,50.73-18.12,50.73-42.93,50.73S199.74,167.28,199.74,135.08Zm58.26,0c0-20.49-6.41-28.15-15.19-28.15s-15.33,7.67-15.33,28.15,6.41,28.15,15.33,28.15S258,155.57,258,135.08Z" transform="translate(3.94 -43.19)"/><path class="cls-10" d="M387.19,165.19h-14.5v18.68h-26.9V165.19H294.22v-18L338,86.3h28.57l-39.72,57h19.79V126.71h26.06V143.3h14.5v21.89Z" transform="translate(3.94 -43.19)"/><path class="cls-7" d="M211.05,62.23c0-5.76,4.53-10,10.67-10s10.67,4.23,10.67,10-4.53,10-10.67,10S211.05,68,211.05,62.23Zm15.86,0a5.2,5.2,0,1,0-10.38,0,5.2,5.2,0,1,0,10.38,0Z" transform="translate(3.94 -43.19)"/><path class="cls-7" d="M234.07,64.37c0-4.47,3.54-7.65,8.4-7.65s8.4,3.18,8.4,7.65-3.48,7.71-8.4,7.71S234.07,68.86,234.07,64.37Zm11.53,0c0-2.25-1.34-3.51-3.13-3.51s-3.13,1.26-3.13,3.51,1.37,3.57,3.13,3.57S245.6,66.64,245.6,64.37Z" transform="translate(3.94 -43.19)"/><path class="cls-7" d="M269.93,64.39c0,4.72-3.27,7.68-7.3,7.68a5.53,5.53,0,0,1-4.14-1.56v6.64h-5.21V57h5v1.48a5.37,5.37,0,0,1,4.39-1.73C266.67,56.71,269.93,59.67,269.93,64.39Zm-5.26,0c0-2.25-1.37-3.54-3.13-3.54s-3.13,1.29-3.13,3.54,1.37,3.54,3.13,3.54S264.67,66.64,264.67,64.39Z" transform="translate(3.94 -43.19)"/><path class="cls-7" d="M271.17,70.54,272.73,67a10.45,10.45,0,0,0,5.19,1.37c1.76,0,2.33-.38,2.33-1,0-2-8.78.27-8.78-5.68,0-2.8,2.58-4.94,7.24-4.94A13.06,13.06,0,0,1,284.58,58L283,61.5a8.74,8.74,0,0,0-4.28-1.1c-1.76,0-2.39.49-2.39,1,0,2.06,8.75-.16,8.75,5.73,0,2.74-2.52,4.88-7.35,4.88A13.47,13.47,0,0,1,271.17,70.54Z" transform="translate(3.94 -43.19)"/><path class="cls-7" d="M286.7,69.19a3.12,3.12,0,1,1,3.13,2.88A2.94,2.94,0,0,1,286.7,69.19Zm0-16.57h6.2l-1,12.21h-4.14Z" transform="translate(3.94 -43.19)"/><rect class="cls-2" x="110.36" y="348.21" width="12.34" height="59.28"/><path class="cls-2" d="M68.46,383.77c.2,0,38,11.85,38,11.85h12.34l43.29-11.85Z" transform="translate(3.94 -43.19)"/><path class="cls-11" d="M34,185c-5.47,1.22-10.36,6.27-9.54,16.36,0,0-4.36.82-4.09,8.72s-.55,57,9.27,83.7c8.07,22,22,68.9,26.74,84.93a7.66,7.66,0,0,0,7.35,5.5H170.41a14,14,0,0,0,13.94-14.54h0a14,14,0,0,0-14.09-13.37l-77.83.81s-4.77-25.71-9.67-26c0,0,2.18-16.09-6-20.72,0,0,1.64-19.85-7.09-21.65,0,0,1.36-16.62-6-19.57,0,0,4.09-14.94-3.54-22.58,0,0,2.18-17.45,0-30.54S57.15,179.81,34,185Z" transform="translate(3.94 -43.19)"/><path class="cls-7" d="M175.88,371.27s-.18,0-.54,0l-1.58,0-6.13,0-22.85.07-78.19.09h-.18l-.06-.17c-3.48-10.12-7.17-20.86-11-31.9C49,320.75,42.94,302.93,37.61,286.67c-1.33-4.07-2.61-8-3.81-11.91A51.38,51.38,0,0,1,32.26,269a26.86,26.86,0,0,1-.46-2.9c-.11-1-.28-1.91-.34-2.87-.69-7.59-.85-14.69-1-21.16-.17-13,0-23.42.18-30.65.1-3.61.18-6.41.23-8.33,0-.94.07-1.66.09-2.17s.05-.74.05-.74,0,.25,0,.74,0,1.23,0,2.17c0,1.92-.08,4.73-.14,8.33-.1,7.24-.23,17.71,0,30.64.15,6.46.33,13.56,1,21.12.06.95.23,1.89.34,2.85a28.09,28.09,0,0,0,.46,2.87,52.31,52.31,0,0,0,1.54,5.76c1.2,3.87,2.49,7.84,3.83,11.9,5.36,16.25,11.42,34.06,17.81,52.75,3.79,11.05,7.48,21.78,11,31.9l-.24-.17,78.19.09,22.85.07,6.13,0,1.58,0Z" transform="translate(3.94 -43.19)"/><path class="cls-7" d="M80.83,357.21a6.9,6.9,0,0,1-1,.88c-.67.53-1.61,1.32-2.76,2.33a76.9,76.9,0,0,0-8.28,8.52,81.26,81.26,0,0,0-6.9,9.68c-.79,1.3-1.41,2.37-1.82,3.12a5.91,5.91,0,0,1-.7,1.13,5.6,5.6,0,0,1,.52-1.23c.36-.78.93-1.88,1.68-3.21a68.15,68.15,0,0,1,6.82-9.82,66.28,66.28,0,0,1,8.44-8.46c1.18-1,2.17-1.73,2.87-2.21A5.84,5.84,0,0,1,80.83,357.21Z" transform="translate(3.94 -43.19)"/><path class="cls-7" d="M92.44,357.09l-.76,0-2.24.05-8.6.14h-.1l0-.11c-.06-.34-.12-.7-.18-1.06a6.9,6.9,0,0,0-.39-1,3,3,0,0,0-1.7-1.49c-1.56-.51-3.43,0-5.11.81l-.36.17.13-.37a19.56,19.56,0,0,0,.5-11,19.78,19.78,0,0,0-6.78-10.87l-.13-.1.06-.15a16.33,16.33,0,0,0-4.46-17.64l-.12-.11,0-.16a20.76,20.76,0,0,0-8-23.18l-.12-.08v-.15a66.31,66.31,0,0,0-.26-8.26,40.83,40.83,0,0,0-1.55-8.3c-.82-2.62-2.06-5.24-4.25-6.76l-.15-.11,0-.18a36.29,36.29,0,0,0,1.35-12.38A22.14,22.14,0,0,0,48,249a16,16,0,0,0-3-4.88l-.12-.14.1-.16a22.63,22.63,0,0,0,3.47-11.61A16.84,16.84,0,0,0,45,222l0,0v-.07a32.75,32.75,0,0,0-2.91-14.34,14,14,0,0,0-3.68-4.73,11.15,11.15,0,0,0-4.53-2.19,13.9,13.9,0,0,0-4.06-.28l-1.63.18-1.34.27c-.8.15-1.39.37-1.79.46s-.62.15-.62.15a21.82,21.82,0,0,1,2.39-.73l1.34-.29,1.64-.21a14.22,14.22,0,0,1,4.12.24,11.17,11.17,0,0,1,4.66,2.19,14.16,14.16,0,0,1,3.79,4.8,32.93,32.93,0,0,1,3,14.49l0-.13a17.22,17.22,0,0,1,3.56,10.53,23.08,23.08,0,0,1-3.52,11.88l0-.3a16.43,16.43,0,0,1,3.1,5,22.9,22.9,0,0,1,1.31,6,36.72,36.72,0,0,1-1.36,12.58l-.1-.29c2.36,1.65,3.62,4.37,4.46,7a42.18,42.18,0,0,1,1.57,8.41,65.62,65.62,0,0,1,.26,8.34l-.12-.23a21.25,21.25,0,0,1,8.22,23.78l-.07-.26a16.5,16.5,0,0,1,5.13,8.77,16.31,16.31,0,0,1-.59,9.4l-.07-.25a20.36,20.36,0,0,1,6.31,22.28l-.23-.2a10.55,10.55,0,0,1,2.69-.91,5.3,5.3,0,0,1,2.66.11A3.22,3.22,0,0,1,80.38,355a7.65,7.65,0,0,1,.4,1.1c.06.37.12.74.17,1.1l-.12-.11,8.6,0h3Z" transform="translate(3.94 -43.19)"/><g class="cls-12"><path d="M78.16,310l-35.69,4.6a7.09,7.09,0,0,0,5.2,3.53,22.5,22.5,0,0,0,6.5-.12A192.91,192.91,0,0,1,82,317,40.09,40.09,0,0,0,78.16,310Z" transform="translate(3.94 -43.19)"/></g><path class="cls-7" d="M60.52,244.64a54.31,54.31,0,0,1-7.42.42,51.78,51.78,0,0,1-7.43-.1,54.31,54.31,0,0,1,7.42-.42A55.53,55.53,0,0,1,60.52,244.64Z" transform="translate(3.94 -43.19)"/><path class="cls-2" d="M60.2,474.08s5.71-17.43,13.58-21.64c12.65-6.77,41.79-10,41.79-10l3.19,8.25s-38.87,1.53-45,9.37a161.37,161.37,0,0,0-9.76,14Z" transform="translate(3.94 -43.19)"/><circle class="cls-7" cx="69.11" cy="431.86" r="8.25"/><path class="cls-2" d="M165.54,473.74S159.83,456.31,152,452.1c-12.65-6.77-41.79-10-41.79-10L107,450.33s38.87,1.53,45,9.37a161.37,161.37,0,0,1,9.76,14Z" transform="translate(3.94 -43.19)"/><circle class="cls-7" cx="166.58" cy="431.86" r="8.25"/><polyline class="cls-2" points="112.27 403.66 114.08 426.08 119.18 427.09 119.18 403.66"/><circle class="cls-7" cx="116.53" cy="431.86" r="8.25"/><path class="cls-7" d="M51.23,271.29a38.38,38.38,0,0,1,6.08-1.52,37.85,37.85,0,0,1,6.19-1,38,38,0,0,1-6.08,1.52A37.85,37.85,0,0,1,51.23,271.29Z" transform="translate(3.94 -43.19)"/><path class="cls-7" d="M68.94,288.74a7.94,7.94,0,0,1-2,.66c-1.28.33-3.08.71-5.08,1s-3.82.5-5.15.58a8.17,8.17,0,0,1-2.15,0c0-.15,3.24-.47,7.22-1.1S68.9,288.6,68.94,288.74Z" transform="translate(3.94 -43.19)"/><path class="cls-7" d="M83.68,332a10.6,10.6,0,0,1-2.38.36c-1.48.15-3.53.28-5.8.35s-4.32,0-5.81,0a10.48,10.48,0,0,1-2.4-.22,12.08,12.08,0,0,1,2.4-.14l5.79-.13,5.79-.2A11.73,11.73,0,0,1,83.68,332Z" transform="translate(3.94 -43.19)"/><path class="cls-7" d="M87.83,347.62c0,.16-3.32.87-7.19,2.52s-6.73,3.54-6.82,3.4a8.22,8.22,0,0,1,1.8-1.36,33.2,33.2,0,0,1,10-4.22A8.7,8.7,0,0,1,87.83,347.62Z" transform="translate(3.94 -43.19)"/><path class="cls-7" d="M154.55,384.38c0,.14-19.67.22-43.93.17s-43.94-.21-43.94-.35,19.67-.22,43.94-.17S154.55,384.23,154.55,384.38Z" transform="translate(3.94 -43.19)"/><path class="cls-7" d="M118.15,396a33.87,33.87,0,0,1-5.88.26,33.87,33.87,0,0,1-5.88-.26,33.87,33.87,0,0,1,5.88-.26A33.87,33.87,0,0,1,118.15,396Z" transform="translate(3.94 -43.19)"/><path class="cls-7" d="M118.7,443.83a12.7,12.7,0,0,1-11.88.31,26,26,0,0,0,6,.8A25.94,25.94,0,0,0,118.7,443.83Z" transform="translate(3.94 -43.19)"/><path class="cls-2" d="M240.19,258.58s-4.7-7.2-7.43-9.67c-2.1-1.9-12.29-5.64-16.87-7.27a14,14,0,0,0-4.57-.81c-6-.05-21.86,0-29.94,1.44-10.07,1.85,56.74,54.38,56.74,54.38l55.65.12L297.41,283l-37.12-7.66-20.5-16.26" transform="translate(3.94 -43.19)"/><g class="cls-12"><path d="M196.77,244.18s3.67.18,8.8,1,10.77,1.07,13.59,3.57c1.88,1.67,13.44,2,13.44,2l-16-.59Z" transform="translate(3.94 -43.19)"/></g><path class="cls-7" d="M191.48,242.86a4,4,0,0,1,1,.11c.66.12,1.6.32,2.75.6,2.31.56,5.47,1.45,8.94,2.49l3.83,1.18H208a42.74,42.74,0,0,1,7.74,1.09l0,0,0,0a5.54,5.54,0,0,1,.48,1.23,5.51,5.51,0,0,1-.68-1.14l.06.06a62.65,62.65,0,0,0-7.7-.81h-.06l-3.83-1.16-8.88-2.63-2.7-.76A3.77,3.77,0,0,1,191.48,242.86Z" transform="translate(3.94 -43.19)"/><path class="cls-13" d="M336.87,296.27c.08-.42-1.1-5.21-1.22-5.68s-3.78-6-3.78-6l-2-.61s-9.3-2.21-11.18-2.08l-1.32.14s-2.43.18-3.39.35-6.91,2.26-6.91,2.26a16.4,16.4,0,0,1-4.45.32,57,57,0,0,1-6.09-1.32l-2.38,13.1,4.5-.14a21.68,21.68,0,0,0,4.33,1.07c1.62.11,6.21.61,6.21.61s7.09,3,8.87-1.18-5.06-4.61-5.06-4.61l2.12-1.49,5.44-.57,1.4.45,1.55,2.4s-.43,5.3,3,4.94l.9-.09.48-5.44-1.63-5.5,3.58,5.44s.31,4.69,1.86,5.31a1,1,0,0,0,.38.07c1.88-.06,2.25-.59,2.25-.59l.39-.95S336.6,297.7,336.87,296.27Z" transform="translate(3.94 -43.19)"/><path class="cls-14" d="M316.53,282.06a4.5,4.5,0,0,1,1.7.08,16.17,16.17,0,0,1,4,1.07,8.17,8.17,0,0,1,3.37,2.4,2.88,2.88,0,0,1,.74,1.55c-.09,0-.33-.57-1-1.31A9.28,9.28,0,0,0,322,283.7C319.1,282.5,316.5,282.24,316.53,282.06Z" transform="translate(3.94 -43.19)"/><path class="cls-14" d="M320,287.77c.15,0,.24.57.32,1.25s.09,1.26-.05,1.29-.39-.51-.47-1.24S319.89,287.76,320,287.77Z" transform="translate(3.94 -43.19)"/><path class="cls-14" d="M316.53,288c.12-.1,1.11,1,2.68,1.76s3,1,3,1.12a6.2,6.2,0,0,1-5.69-2.88Z" transform="translate(3.94 -43.19)"/><path class="cls-14" d="M305.19,288.44a2.8,2.8,0,0,1,1.4.49,7.74,7.74,0,0,1,2.65,2.41,10.18,10.18,0,0,1,.58,1l-.26-.14a6.94,6.94,0,0,1,3.88.33,36.58,36.58,0,0,0-3.81.18l-.18,0-.09-.17a8.93,8.93,0,0,0-.55-.92A12.83,12.83,0,0,0,305.19,288.44Z" transform="translate(3.94 -43.19)"/><path class="cls-14" d="M330.06,283.92a5.87,5.87,0,0,1,1.35,1.51,18.33,18.33,0,0,1,2.3,4.32,17.84,17.84,0,0,1,1.07,4.78,5.92,5.92,0,0,1,0,2,37.7,37.7,0,0,0-1.52-6.62A37.13,37.13,0,0,0,330.06,283.92Z" transform="translate(3.94 -43.19)"/><path class="cls-11" d="M241.48,440.83l-1,27.06S267.61,478,267.9,483l-52.53-.11-.13-42.22Z" transform="translate(3.94 -43.19)"/><path class="cls-2" d="M224.22,465.58a2.15,2.15,0,0,0-1.49,2.45,2.07,2.07,0,0,0,2.41,1.5,2.26,2.26,0,0,0,1.56-2.6,2.15,2.15,0,0,0-2.68-1.28" transform="translate(3.94 -43.19)"/><path class="cls-7" d="M215.38,482.93l.15-4.26,50.31,1.7s2.34,1,2.07,2.67Z" transform="translate(3.94 -43.19)"/><path class="cls-3" d="M241.31,467.62c0,.26-1.29.37-2.56,1.19s-1.94,1.9-2.17,1.8.15-1.58,1.7-2.55S241.36,467.39,241.31,467.62Z" transform="translate(3.94 -43.19)"/><path class="cls-3" d="M246.81,469.91c.06.25-1.05.68-1.93,1.77s-1.13,2.23-1.38,2.22-.42-1.46.7-2.79S246.81,469.67,246.81,469.91Z" transform="translate(3.94 -43.19)"/><path class="cls-3" d="M249.93,476.51c-.23.05-.59-1.23.07-2.63s1.86-2,2-1.75-.64,1-1.16,2.12S250.18,476.49,249.93,476.51Z" transform="translate(3.94 -43.19)"/><path class="cls-3" d="M240.86,461.43c-.11.23-1.28-.12-2.73,0s-2.58.55-2.71.33,1-1.13,2.67-1.22S241,461.23,240.86,461.43Z" transform="translate(3.94 -43.19)"/><path class="cls-11" d="M199.38,438l-17,21s15.66,24.39,12.89,28.59l-42-31.58,25.21-33.87Z" transform="translate(3.94 -43.19)"/><path class="cls-2" d="M170.72,447.47a2.15,2.15,0,0,0-2.66,1.06,2.06,2.06,0,0,0,1,2.64A2.27,2.27,0,0,0,171.9,450a2.14,2.14,0,0,0-1.38-2.63" transform="translate(3.94 -43.19)"/><path class="cls-7" d="M153.24,456.06l2.68-3.31,39.25,31.52s1.26,2.22.06,3.38Z" transform="translate(3.94 -43.19)"/><path class="cls-3" d="M183.17,459.36c-.16.2-1.26-.48-2.76-.58s-2.69.36-2.82.13,1.07-1.18,2.89-1S183.36,459.2,183.17,459.36Z" transform="translate(3.94 -43.19)"/><path class="cls-3" d="M186.21,464.49c-.1.23-1.25-.09-2.6.26s-2.24,1.11-2.44.95.54-1.42,2.23-1.81S186.35,464.29,186.21,464.49Z" transform="translate(3.94 -43.19)"/><path class="cls-3" d="M184.74,471.64c-.22-.1.27-1.34,1.64-2.06s2.67-.45,2.62-.22-1.09.39-2.2,1S185,471.78,184.74,471.64Z" transform="translate(3.94 -43.19)"/><path class="cls-3" d="M186.53,454.13c-.23.12-.95-.87-2.17-1.66s-2.4-1.11-2.37-1.36,1.44-.33,2.87.62S186.75,454.05,186.53,454.13Z" transform="translate(3.94 -43.19)"/><path class="cls-7" d="M238.77,251.32a91.58,91.58,0,0,1,15.55-2.73,31.93,31.93,0,0,1,15.44,2.51c.72.34,5.54,3.11,5.39,3.9-.1.56-4.65-1.28-5.17-1-4.91,2.35-10.62,2.63-16,1.76a71.49,71.49,0,0,1-15.22-4.41" transform="translate(3.94 -43.19)"/><path class="cls-13" d="M211.58,249.32l47.26,3.11c13.2.64,23.82,8.86,22.81,22l-.16,1.21a23.61,23.61,0,0,1-24.68,20.41c-11.43-.62-24.06-1.46-30.12-2.35C214.15,291.87,213.9,279,213.9,279s-1.11-.14-4.82-.48l-12-8.65h0Z" transform="translate(3.94 -43.19)"/><path class="cls-14" d="M213.9,279.05a30.65,30.65,0,0,1,7-15.7S211,266,210.4,278.69Z" transform="translate(3.94 -43.19)"/><path class="cls-7" d="M247.91,284.69c.26.19-.57,1.68-.32,3.61s1.4,3.23,1.19,3.47-.54-.06-1.07-.62a5,5,0,0,1-1.24-2.74,4.74,4.74,0,0,1,.55-2.91C247.39,284.85,247.79,284.6,247.91,284.69Z" transform="translate(3.94 -43.19)"/><path class="cls-7" d="M249.31,267.43c.23.23-.8,1.59-.83,3.53s.93,3.39.68,3.6-.53-.13-1-.76a5,5,0,0,1-.84-2.88,4.87,4.87,0,0,1,1-2.81C248.78,267.52,249.21,267.32,249.31,267.43Z" transform="translate(3.94 -43.19)"/><path class="cls-7" d="M238,278.6a12.67,12.67,0,0,1,.14,3.21c0,.5,0,1,.34,1.11a2.59,2.59,0,0,0,1.51-.13l3.95-1c5.62-1.3,10.21-2.17,10.26-1.94s-4.46,1.46-10.08,2.76l-4,.88a2.84,2.84,0,0,1-2,0,1.24,1.24,0,0,1-.61-.91,3.43,3.43,0,0,1,0-.85A12.57,12.57,0,0,1,238,278.6Z" transform="translate(3.94 -43.19)"/><path class="cls-7" d="M259.7,275.13c-.46-.33.32-2.13.67-4.41s.26-4.22.8-4.39c.26-.07.65.38.94,1.23a7.78,7.78,0,0,1-1.12,6.7C260.43,275,259.91,275.28,259.7,275.13Z" transform="translate(3.94 -43.19)"/><path class="cls-7" d="M257.29,293.53c-.39-.46.26-2,.5-3.87s.13-3.53.63-3.85c.24-.13.65.17,1,.92a6.15,6.15,0,0,1,.34,3.23,6.08,6.08,0,0,1-1.25,3C258,293.57,257.48,293.73,257.29,293.53Z" transform="translate(3.94 -43.19)"/><path class="cls-13" d="M249.4,252.2c.12-.2,3.72-8.29-4.9-9.18s-7.74,7.95-7.49,8S249.4,252.2,249.4,252.2Z" transform="translate(3.94 -43.19)"/><path class="cls-14" d="M240.55,248.72s-.09-.16-.18-.43a1.53,1.53,0,0,1,.09-1.13c.43-.88,1.95-1.49,3.51-1.38a5,5,0,0,1,2.11.64,1.77,1.77,0,0,1,1,1.25.76.76,0,0,1-.5.84c-.25.09-.42,0-.44.06s.13.2.49.17a1,1,0,0,0,.58-.28,1.16,1.16,0,0,0,.31-.81,2.14,2.14,0,0,0-1.18-1.71,5.23,5.23,0,0,0-2.35-.77c-1.74-.12-3.46.6-3.95,1.81a1.61,1.61,0,0,0,.09,1.4C240.34,248.68,240.53,248.75,240.55,248.72Z" transform="translate(3.94 -43.19)"/><path class="cls-7" d="M271.64,291.86c.64,1.47,5.56-2.3,7.44-5.58,2.84-5,5-12.75,4.14-17.67-1.09-5.91-3.5-11-8.48-14.36a34.12,34.12,0,0,0-17-5.45,10.38,10.38,0,0,0-5.39.72c-2,1-3.44,3.23-6.07,2.88a3.63,3.63,0,0,0-2.72.65c-1.83,1.42-.43,3.5,1.07,4.54,3.2,2.22,7.22,2.81,11.08,3.34a25.21,25.21,0,0,0,8.26.23c1.48-.29,2.9-.84,4.4-1a4.35,4.35,0,0,1,4.89,1.79,9.05,9.05,0,0,1,.86,9.09c-2.18,4.7-5.53,12.76-4.09,15.08,2.08,3.34,3.56,4.24,3.56,4.24Z" transform="translate(3.94 -43.19)"/><path class="cls-3" d="M249.56,248a8,8,0,0,0-1.29-2.75,8.27,8.27,0,0,0-2.55-1.66c0-.06.38-.11,1,0a4.11,4.11,0,0,1,2,1.26,4.2,4.2,0,0,1,1,2.13C249.71,247.62,249.62,248,249.56,248Z" transform="translate(3.94 -43.19)"/><path class="cls-14" d="M233.75,274.12a2,2,0,0,0-2.42-1.13l.25-.12a2,2,0,0,0-2.08,1.27,2.24,2.24,0,0,0,.71,2.39,2.36,2.36,0,0,0,2.73.17A2.18,2.18,0,0,0,233.75,274.12Z" transform="translate(3.94 -43.19)"/><path class="cls-7" d="M233.23,276.35a2,2,0,0,0,.45-1.23,2.45,2.45,0,0,0-.27-1.34,2.17,2.17,0,0,0-1.48-.67,2.39,2.39,0,0,0-1.63.35,1.7,1.7,0,0,0-.75,1.09,2.16,2.16,0,0,0,.27,1.27s-.16,0-.33-.24a1.59,1.59,0,0,1-.31-1.07,2,2,0,0,1,.83-1.44,2.75,2.75,0,0,1,2-.47,2,2,0,0,1,2.06,2.56,1.64,1.64,0,0,1-.45,1C233.4,276.36,233.25,276.38,233.23,276.35Z" transform="translate(3.94 -43.19)"/><g class="cls-15"><path class="cls-3" d="M282.2,266.3a23.09,23.09,0,0,0-20.36-16.2l-3.48-.16a4,4,0,0,0-1.81.17,1.39,1.39,0,0,0-.9,1.43c.14.68.9,1,1.57,1.18,3.95,1.07,8.2.87,12.06,2.23a15.62,15.62,0,0,1,9.91,18.71,4.87,4.87,0,0,0-.27,1.76,1.36,1.36,0,0,0,1.1,1.24,1.72,1.72,0,0,0,1.36-.85C283.38,273.17,283.18,269.46,282.2,266.3Z" transform="translate(3.94 -43.19)"/></g><path class="cls-14" d="M247.2,274.76c0,.06-.45.07-1.08-.22a3.77,3.77,0,0,1-2-4.58c.22-.66.52-1,.57-.94s-.11.41-.22,1a4.17,4.17,0,0,0,.26,2.37,4.22,4.22,0,0,0,1.56,1.8C246.83,274.56,247.22,274.68,247.2,274.76Z" transform="translate(3.94 -43.19)"/><path class="cls-14" d="M244.72,291.19a3.27,3.27,0,0,1-.41-2.69,3.34,3.34,0,0,1,1.31-2.38c.12.09-.56,1.07-.8,2.47S244.86,291.15,244.72,291.19Z" transform="translate(3.94 -43.19)"/><path class="cls-7" d="M153.24,324.36c.6-.22,43,1.85,56.76,3.06s37.61,7.7,38.8,23.9c.95,13,.76,103.6.76,103.6h-37l-.88-95.75-57.47-14.49Z" transform="translate(3.94 -43.19)"/><g class="cls-12"><path d="M183.65,330.46s20.6,3.72,37,8.39,23.71,14.66,26.11,20.61,3.54,14.84-1.51,23.18c-3.19,5.28-19.18,23.86-19.18,23.86s-3.29-53.32-3.45-54.12S183.65,330.46,183.65,330.46Z" transform="translate(3.94 -43.19)"/></g><path class="cls-7" d="M245,365.52c-1.75-10.28-13.38-17.45-27.66-22.82-14-5.29-50.84-18.36-50.84-18.36l-8.82-2.17h-3.93l-1.3-3.91s-25-7.22-61.11,6.09l-1.23,1s-1.1,26.34,4,32c0,0,57.51-.8,60.53-.56s45.2,19.39,45.2,19.39l-36.1,55.39,29.86,20.86s18-25.66,29-41C238.32,389.42,247.07,377.66,245,365.52Z" transform="translate(3.94 -43.19)"/><path class="cls-11" d="M245,365.52s.09.62.24,1.82a22.54,22.54,0,0,1-.2,5.37,32.91,32.91,0,0,1-2.63,8.31,83.45,83.45,0,0,1-5.76,10.37c-4.78,7.53-11.26,16.24-18.44,26.52l-24.44,34.64-.12.17-.17-.12-29.87-20.84-.18-.13.12-.19L199.64,376l.11.37q-12-5.45-24.63-11c-4.19-1.83-8.43-3.67-12.72-5.46-2.15-.88-4.3-1.79-6.5-2.55a6.7,6.7,0,0,0-.81-.24,2.26,2.26,0,0,0-.83-.13c-.57,0-1.16,0-1.75,0H149c-18.85.1-37.23.37-54.87.59H94l-.07-.09a11.21,11.21,0,0,1-1.93-3.8,32.5,32.5,0,0,1-1-4.07,73.88,73.88,0,0,1-.94-8.19c-.35-5.44-.39-10.81-.21-16.09v-.11l.08-.07,1.23-1,0,0h0a132.53,132.53,0,0,1,31.64-7.44,103.14,103.14,0,0,1,15.24-.5,71.09,71.09,0,0,1,14.38,1.88l.11,0,0,.11c.46,1.37.88,2.65,1.3,3.91l-.2-.14h4l8.81,2.18h0l35.76,13,14.7,5.33a95.73,95.73,0,0,1,12,5.37c7,3.72,11.66,8.09,13.73,11.76a9.25,9.25,0,0,1,.7,1.3A11.82,11.82,0,0,1,244,362a18.11,18.11,0,0,1,.63,1.9c.25,1.06.36,1.59.36,1.59s-.14-.53-.4-1.57c-.11-.52-.4-1.13-.66-1.88a11.9,11.9,0,0,0-.55-1.16,9.68,9.68,0,0,0-.71-1.28C240.61,356,236,351.69,229,348a97.89,97.89,0,0,0-12-5.32l-14.72-5.29-35.79-12.88h0l-8.82-2.16h-4l0-.14-1.3-3.91.14.14a71.06,71.06,0,0,0-14.28-1.84,102.21,102.21,0,0,0-15.17.52,132.13,132.13,0,0,0-31.52,7.45l.07,0-1.23,1,.09-.18c-.17,5.25-.13,10.62.22,16a77.25,77.25,0,0,0,.94,8.13,31.91,31.91,0,0,0,1,4,10.51,10.51,0,0,0,1.82,3.61l-.19-.08c17.65-.23,36-.5,54.88-.61h3.53l1.77,0a2.82,2.82,0,0,1,.9.14,5.87,5.87,0,0,1,.87.26c2.23.77,4.38,1.68,6.53,2.56,4.3,1.79,8.53,3.63,12.73,5.47q12.58,5.52,24.63,11l.27.12-.16.25L163.93,431.7l-.06-.31,29.84,20.88-.29.05,24.51-34.6c7.21-10.26,13.72-19,18.52-26.45A84.35,84.35,0,0,0,242.24,381a33.15,33.15,0,0,0,2.67-8.25,23.67,23.67,0,0,0,.26-5.35C245.06,366.15,245,365.52,245,365.52Z" transform="translate(3.94 -43.19)"/><path class="cls-11" d="M217.77,369.44a28.31,28.31,0,0,1-2.86.5A35.09,35.09,0,0,0,202.05,375c-1.5,1-2.38,1.64-2.43,1.58a11.12,11.12,0,0,1,2.23-1.88,29.25,29.25,0,0,1,13-5.12A12.07,12.07,0,0,1,217.77,369.44Z" transform="translate(3.94 -43.19)"/><polygon class="cls-10" points="215.22 235.23 215.22 238.4 207.5 239.12 207.05 237.5 209.13 232.67 215.22 235.23"/><polygon class="cls-10" points="209.19 237.73 199.21 257.71 201.41 293.57 196.4 301.39 191.13 292.37 192.05 258.25 207.58 236.26 209.19 237.73"/><path class="cls-2" d="M208.25,247.58s-14.08-5.34-27.69-6.24-30.44,8.24-38.47,11.81-38.79,34-45.43,44.12c-3.8,5.82-8.89,19-8.89,19-.86,4.59,2.36,9.08,2.36,9.08l61.88.46h11.61l4.91-10.49s9.37-.67,12.05-5.8,12.5-12.72,12.5-12.72l11.16-18.52,7.37,1.56,4.08-31.43Z" transform="translate(3.94 -43.19)"/><path class="cls-7" d="M162.38,261.65a5,5,0,0,1-.28,1.08l-.87,2.89a89.42,89.42,0,0,0-3.43,19.58c-.07,1.19-.12,2.19-.17,3a4.61,4.61,0,0,1-.11,1.11,4.29,4.29,0,0,1-.1-1.11c0-.72,0-1.75,0-3a70.45,70.45,0,0,1,3.44-19.67c.4-1.22.76-2.19,1-2.85A5.48,5.48,0,0,1,162.38,261.65Z" transform="translate(3.94 -43.19)"/><path class="cls-13" d="M189.52,385s4.23,5,5.54,6.73c1.18,1.6,2.35,7.46,2.8,13.18a2.06,2.06,0,0,1-2.69,2.15,1.7,1.7,0,0,1-1.08-1.34c-.91-4.14-1.16-5.9-1.16-5.9-.12-2-.33-1.72-.39-.36s1,8.82,1,8.82,2.86,10.19,2.09,11.33a1.86,1.86,0,0,1-2.91.13c-.39-.53-3.61-9.05-3.61-9.05l-.83-4.63s1.66,14.66.73,15.81a1.6,1.6,0,0,1-2.57.12c-.64-.58-1.31-7.06-1.31-7.06l-1.51-8.65.27,16.49s-.17,1.56-1.4,1.62-2.05-1.75-2.05-1.75l-1.77-17s.57,9.45-.06,9.94c-.85.66-1.62.44-1.9-.28-.57-1.47-1.4-10-1.4-10l-.78-16.18-.57-5.35,14.15-5.07Z" transform="translate(3.94 -43.19)"/><g class="cls-12"><path d="M158.83,283.91a226.05,226.05,0,0,0-9.26,41.83A95.48,95.48,0,0,0,151.33,341c1.63,8.08,14.89,43.17,14.89,43.17l9.09.79-7.66-62.32,7.66-29.13Z" transform="translate(3.94 -43.19)"/></g><path class="cls-2" d="M199.59,257.34c6.23,1.91,7.4,14.54,6.06,18.15-4.29,11.54-18,22.4-17.8,21.77l-8.91,35.44,12.63,48L171.15,388s-18.62-49.29-19-57,5.18-27.83,6-39.87c.53-7.73,4.46-23.41,14-32.64" transform="translate(3.94 -43.19)"/><path class="cls-7" d="M172.15,258.43s-.15.18-.46.52-.79.83-1.38,1.51a43.19,43.19,0,0,0-4.48,6.44,58.13,58.13,0,0,0-4.9,11.43,61.37,61.37,0,0,0-1.89,7.56c-.24,1.36-.46,2.76-.6,4.21s-.22,3-.43,4.49c-.72,6.13-2.06,12.75-3.41,19.89-.67,3.57-1.37,7.26-1.86,11.1a29.08,29.08,0,0,0-.27,5.83l.21,1.46.34,1.47c.21,1,.49,2,.77,3,1.1,3.94,2.39,7.94,3.75,12s2.8,8.23,4.29,12.46c3,8.45,6.18,17.19,9.54,26.13l-.33-.15,9.49-3.4,10.93-3.91-.16.31c-4.48-17.07-8.74-33.25-12.61-48l0-.06v-.06c3.31-13.08,6.32-25,8.95-35.43l.37.1a.18.18,0,0,0-.19-.22h0l.06,0L188,297l.28-.19.56-.42c.37-.28.72-.58,1.08-.87q1.05-.88,2-1.8,2-1.83,3.72-3.69a60.71,60.71,0,0,0,6-7.46,32.3,32.3,0,0,0,3.85-7.38,18.65,18.65,0,0,0,.18-6.95c-.56-4.19-1.94-7.31-3.44-8.95a7.55,7.55,0,0,0-2.75-1.92s.28.1.81.32a3.47,3.47,0,0,1,.92.55,6,6,0,0,1,1.11,1c1.55,1.64,3,4.78,3.57,9a25.31,25.31,0,0,1,.26,3.36,13.7,13.7,0,0,1-.4,3.7,32.41,32.41,0,0,1-3.85,7.47,60.43,60.43,0,0,1-6,7.53q-1.75,1.88-3.73,3.72c-.66.61-1.34,1.22-2.05,1.82-.35.3-.71.6-1.08.89l-.57.43-.3.21-.16.1-.1.05-.09,0a.21.21,0,0,1-.23-.27l.37.1c-2.61,10.43-5.59,22.36-8.87,35.45v-.12l12.65,48,.06.23-.22.08-10.93,3.91-9.49,3.4-.24.09-.09-.24c-3.36-8.95-6.55-17.69-9.53-26.15-1.48-4.23-2.93-8.38-4.28-12.47s-2.65-8.09-3.74-12.05c-.28-1-.55-2-.77-3-.11-.5-.23-1-.34-1.48l-.21-1.51a29.16,29.16,0,0,1,.29-5.93c.51-3.86,1.22-7.55,1.89-11.12,1.37-7.13,2.73-13.75,3.47-19.85.21-1.53.29-3,.44-4.48s.37-2.87.62-4.24a62.93,62.93,0,0,1,1.93-7.58,58,58,0,0,1,5-11.44,42.2,42.2,0,0,1,4.57-6.41C171.47,259.07,172.15,258.43,172.15,258.43Z" transform="translate(3.94 -43.19)"/><path class="cls-7" d="M205.24,265.54a11.59,11.59,0,0,1-.05-2.66,61.54,61.54,0,0,1,1.9-12.66,12.07,12.07,0,0,1,.82-2.53,16.85,16.85,0,0,1-.46,2.61c-.33,1.6-.75,3.81-1.13,6.28s-.61,4.7-.76,6.33A14.51,14.51,0,0,1,205.24,265.54Z" transform="translate(3.94 -43.19)"/><g class="cls-12"><path d="M207.52,248.43c-.22-.09-.43.12-.57.3a18.17,18.17,0,0,0-3.09,5.1c-1.12,3.33.07,7,1.08,10.4a27.45,27.45,0,0,1,1,10l-.25,1.17a10.14,10.14,0,0,0,.86-6.83,68.63,68.63,0,0,1-1.21-6.92c-.24-4.29,1.49-8.41,2.36-12.61C207.75,248.85,207.75,248.52,207.52,248.43Z" transform="translate(3.94 -43.19)"/></g><rect class="cls-2" x="135.32" y="299.2" width="6.37" height="45.58"/><path class="cls-11" d="M40.31,312.61h0A6,6,0,0,0,47.47,316a89.26,89.26,0,0,1,45.68-.47c21.07,5.23,28.76,16.57,31.62,23.71A9.26,9.26,0,0,0,133.4,345h.83a6,6,0,0,0,5.82-7.22c-2.17-9.9-15.34-27.1-38.88-33.46-28.33-7.66-48-2.56-57.15.29A6,6,0,0,0,40.31,312.61Z" transform="translate(3.94 -43.19)"/><path class="cls-7" d="M40.31,312.61s-.09-.19-.23-.57a5.92,5.92,0,0,1-.28-1.8,6,6,0,0,1,3.73-5.53,90.35,90.35,0,0,1,25.24-4.52,101.85,101.85,0,0,1,17.73.92c1.58.25,3.19.48,4.81.77l4.93,1,5,1.24c1.67.54,3.39,1,5.08,1.61s3.4,1.25,5.06,2.06c.83.4,1.7.74,2.51,1.19l2.47,1.33a63,63,0,0,1,9.45,6.57,56.19,56.19,0,0,1,8.23,8.63l.92,1.21.85,1.27c.28.43.57.85.84,1.28l.76,1.34a28,28,0,0,1,2.48,5.69c.14.51.29,1,.41,1.52a6.16,6.16,0,0,1,.11,1.6,6.21,6.21,0,0,1-6.37,5.85,10.08,10.08,0,0,1-5.86-1.51,9.55,9.55,0,0,1-3.77-4.61,30,30,0,0,0-2.67-5.09c-.49-.82-1.08-1.56-1.63-2.32s-1.16-1.48-1.81-2.14a39.49,39.49,0,0,0-8.42-6.94,54.16,54.16,0,0,0-9.35-4.57,73.77,73.77,0,0,0-9.45-2.76,89.9,89.9,0,0,0-17.53-2.25,86.9,86.9,0,0,0-25.39,2.86,8.71,8.71,0,0,1-2.12.41,6,6,0,0,1-1.89-.22,6,6,0,0,1-2.55-1.48,6.06,6.06,0,0,1-1.09-1.46c-.16-.38-.23-.58-.23-.58a6.9,6.9,0,0,0,1.41,1.95A6,6,0,0,0,44.24,316a6.39,6.39,0,0,0,1.84.19,8.59,8.59,0,0,0,2.07-.43,85.56,85.56,0,0,1,25.45-3,89.82,89.82,0,0,1,17.61,2.2,74.57,74.57,0,0,1,9.51,2.76,55.51,55.51,0,0,1,9.45,4.59,40.06,40.06,0,0,1,8.53,7c.66.67,1.23,1.44,1.84,2.17s1.16,1.53,1.65,2.36A29.89,29.89,0,0,1,124.9,339a9,9,0,0,0,3.57,4.37,9.51,9.51,0,0,0,5.58,1.43,5.74,5.74,0,0,0,4.94-2.6,5.65,5.65,0,0,0,.9-2.76,6.07,6.07,0,0,0-.1-1.47c-.12-.49-.27-1-.4-1.47a27.53,27.53,0,0,0-2.44-5.59l-.75-1.32c-.26-.43-.55-.85-.83-1.27l-.84-1.26-.91-1.2a55.66,55.66,0,0,0-8.15-8.56,62.1,62.1,0,0,0-9.37-6.53l-2.45-1.33c-.81-.45-1.67-.79-2.49-1.18-1.64-.81-3.35-1.41-5-2.05s-3.38-1.07-5-1.61l-5-1.25-4.91-1c-1.62-.29-3.22-.52-4.79-.78a101.31,101.31,0,0,0-17.65-1,91.84,91.84,0,0,0-25.18,4.34,5.9,5.9,0,0,0-3.7,5.35A7.33,7.33,0,0,0,40.31,312.61Z" transform="translate(3.94 -43.19)"/><path class="cls-3" d="M50.76,310.2a4.82,4.82,0,1,1-4.82-4.82A4.82,4.82,0,0,1,50.76,310.2Z" transform="translate(3.94 -43.19)"/><path class="cls-11" d="M285.51,297.07H218.6a2.26,2.26,0,0,1-2.26-2.26v-.13a2.26,2.26,0,0,1,2.26-2.26h66.91a2.26,2.26,0,0,1,2.26,2.26v.13A2.26,2.26,0,0,1,285.51,297.07Z" transform="translate(3.94 -43.19)"/><path class="cls-11" d="M304.55,235l-16.73,60.16a2.45,2.45,0,0,1-3,1.7h0a2.45,2.45,0,0,1-1.7-3l16.73-60.16a2.45,2.45,0,0,1,3-1.7h0A2.45,2.45,0,0,1,304.55,235Z" transform="translate(3.94 -43.19)"/><path class="cls-7" d="M290.93,239.7c-.1.1-4.78-4.27-10.45-9.77s-10.18-10-10.08-10.14,4.78,4.27,10.45,9.77S291,239.6,290.93,239.7Z" transform="translate(3.94 -43.19)"/><path class="cls-7" d="M288.65,246.89a11.49,11.49,0,0,1-1.66-.63l-4.46-1.87c-3.76-1.58-9-3.73-14.77-6s-11.08-4.24-14.92-5.64l-4.54-1.66a11.22,11.22,0,0,1-1.65-.67,12.57,12.57,0,0,1,1.71.48c1.09.34,2.66.85,4.6,1.51,3.87,1.31,9.18,3.22,15,5.5s11,4.49,14.72,6.16c1.86.83,3.37,1.52,4.4,2A12.24,12.24,0,0,1,288.65,246.89Z" transform="translate(3.94 -43.19)"/><path class="cls-7" d="M287.74,254a16.93,16.93,0,0,1-4.12.09,16.44,16.44,0,0,1-4.1-.43,16.93,16.93,0,0,1,4.12-.09A17.11,17.11,0,0,1,287.74,254Z" transform="translate(3.94 -43.19)"/><path class="cls-11" d="M337.23,277.9H360l-1.7,12.53s-1.49,6.17-4.95,6.17h-9.87a10.57,10.57,0,0,1-4.8-6.75Z" transform="translate(3.94 -43.19)"/><path class="cls-7" d="M337.23,277.9a3.19,3.19,0,0,1,.07.4c0,.28.09.65.16,1.12.13,1,.32,2.4.56,4.17s.52,3.94.84,6.39a10.24,10.24,0,0,0,4.71,6.47l-.09,0,7.89,0c.69,0,1.41,0,2.1,0a2.93,2.93,0,0,0,1.83-.78,9,9,0,0,0,2.29-3.62,15.87,15.87,0,0,0,.52-1.61v0c.61-4.42,1.19-8.64,1.72-12.53l.18.21L343.67,278l-4.72-.05-1.27,0-.45,0a2.87,2.87,0,0,1,.41,0l1.23,0,4.67-.05,16.47-.09h.21l0,.21c-.52,3.88-1.09,8.1-1.69,12.53h0a16.07,16.07,0,0,1-.54,1.66,9.4,9.4,0,0,1-2.4,3.78,3.24,3.24,0,0,1-2.06.86c-.73,0-1.42,0-2.12,0l-7.89,0h-.05l0,0a10.53,10.53,0,0,1-4.82-6.73c-.33-2.5-.55-4.7-.76-6.5s-.34-3.17-.45-4.17c-.05-.45-.08-.81-.11-1.09S337.23,277.89,337.23,277.9Z" transform="translate(3.94 -43.19)"/><path class="cls-11" d="M358.3,284.36l.33-.08s.22,0,0,0,.05,0,.1,0a6.09,6.09,0,0,1,.74,0c-.24,0,0,0,.09,0l.39.1.33.11c.15,0,0,0-.06,0l.21.1a5.09,5.09,0,0,1,.63.39c.13.09,0,0-.05,0l.13.11a3.7,3.7,0,0,1,.28.28c.07.07.21.27.08.07a4,4,0,0,1,.22.34c.06.1.11.21.16.31s0,0,0-.06.05.15.08.22.08.26.11.39.07.38.05.22,0,.17,0,.22a2.81,2.81,0,0,1,0,.41,1.64,1.64,0,0,1,0,.23s0,.22,0,0,0,.17-.05.22l-.09.34c0,.09-.16.4-.05.16a5.32,5.32,0,0,1-.37.66l-.1.14s.14-.15,0-.05-.21.23-.32.33-.29.23-.17.15l-.19.12-.3.17-.15.08c.17-.09.08,0,0,0s-.51.14-.77.21.06,0,.08,0l-.23,0h-.73c.17,0,0,0,0,0l-.22-.05-.44-.13-.05,0c.17.08-.15-.08-.15-.08a1.37,1.37,0,0,0-1.39,2.37,5.87,5.87,0,0,0,7.7-2.11,6.11,6.11,0,0,0,.65-4.33,5.58,5.58,0,0,0-2.5-3.48,6,6,0,0,0-4.68-.71,1.39,1.39,0,0,0-1,1.69,1.41,1.41,0,0,0,1.7,1Z" transform="translate(3.94 -43.19)"/><path class="cls-7" d="M358.3,284.36a.92.92,0,0,1-.47.08,1.44,1.44,0,0,1-.63-2.69,3.48,3.48,0,0,1,1.33-.34,6.06,6.06,0,0,1,4.65,1.52,5.6,5.6,0,0,1,1.84,3.51,6.06,6.06,0,0,1-1,4.26,5.88,5.88,0,0,1-4,2.41,6.15,6.15,0,0,1-2.14-.07,6.91,6.91,0,0,1-1-.3l-.48-.22a1.48,1.48,0,0,1-.46-.34,1.65,1.65,0,0,1,0-2.07,1.62,1.62,0,0,1,2-.32l-.27.16a.19.19,0,0,1,.16-.18.2.2,0,0,1,.11,0h0l0,0,.07,0,0,0h0l0,0c0-.1.14.29-.08.32h-.12l-.08,0h0l-.06,0c-.09-.4.28-.29.17-.3h0l0,0,.06,0,.14,0a3,3,0,0,0,.57.14h0l.1.05s.06,0,.05.17-.15.14-.16.14h-.18l-.05,0,0,0s-.1-.05-.05-.22.13-.08.14-.1H359a5.43,5.43,0,0,0,.57,0l0,.35h-.15s-.05,0-.11-.05a.2.2,0,0,1-.05-.19c0-.07,0,0,0-.06s.07,0,.08-.05h0l.15,0,.3-.08.29-.08.13-.05h0l0,0c-.08-.07,0,.34.1.29h.07l-.06,0-.15-.3c.14-.06.26-.14.39-.2l.18-.11.05,0,0,0h0a.2.2,0,0,1,.11,0,.26.26,0,0,1,.09.05.18.18,0,0,1,0,.23l0,0-.05,0h0a.14.14,0,0,1-.1,0,.18.18,0,0,1-.13-.1c-.05-.09.07-.22,0-.19h0l0,0a2.06,2.06,0,0,0,.31-.28l.15-.15,0,0,0,0,0,0h0s.17,0,.21.11,0,.09,0,.11h0l0,0h0l-.06.07-.26-.19c.18-.25.31-.52.46-.77l.28.13,0,0v0l0,0,0,0s0,0-.12,0-.14-.17-.14-.17v0l0-.11a1.46,1.46,0,0,0,.07-.19,2.48,2.48,0,0,0,.1-.39l0-.1v0h0s0,0,.06-.08a.14.14,0,0,1,.14,0l.06,0a.22.22,0,0,1,0,.11h0v.08h0v0c.1.12-.42.06-.28,0v-.09a.28.28,0,0,0,0-.09c0-.13,0-.26,0-.38s0-.24,0-.37v-.11a.14.14,0,0,1,.07-.11.12.12,0,0,1,.14,0l0,.05c0,.05,0,.05,0,.05v.14a.08.08,0,0,1,0,.05s0,0-.07.05-.17-.05-.16-.07a2,2,0,0,1-.05-.22,4.72,4.72,0,0,0-.19-.67l.24-.09,0,.05v.07h0v0s0,.1-.11.14-.09,0-.1,0l0,0-.07-.12-.11-.21-.23-.37.19-.14,0,.05,0,0h0a.12.12,0,0,1,0,.11c-.13.15-.22,0-.19,0v0l-.07-.09-.15-.15a2.62,2.62,0,0,0-.3-.28l.15-.16.05,0,0,0h0l0,0c-.24.32-.1.08-.14.15h0l-.13-.08-.25-.15a3.11,3.11,0,0,0-.46-.26l.08-.17.08,0h0l0,0s.05.11,0,.14l-.05,0h-.08l-.16-.06-.3-.1-.28-.07-.13,0h0c.06,0-.12.07,0-.14h.11v.14l-.66,0a.56.56,0,0,0-.13,0h-.12s0,0,0-.07l0,0h.13s0,0,0,.05,0,0,0,0h-.43l.36-.12h.07s0,0,0,0,0,0,0,.05h0l-.11,0h0v0s0,0,0,0,0,0,0,0h.91v.14h-.11s0,0,0,0c.12-.21-.06-.12,0-.14h.16l.3.06a1.81,1.81,0,0,1,.31.09l.16.05h0c-.06.24-.06.15-.08.16l-.09,0,.08-.17a3.77,3.77,0,0,1,.48.26l.26.15.14.08h0l0,.08s0-.07,0,0,0,0,0,0l0,0,0,0L361,285l.15-.16c.1.08.2.18.31.28a1.33,1.33,0,0,1,.16.17l.07.09h0s-.05.05-.07,0l0,0s0,0,0,0,0,0,0,0l-.05,0h0v0l0-.05.19-.14.25.38.11.21s.07.06,0,.11,0,0-.07.06l-.08,0,0,0h0v0l0-.07.24-.09a4.91,4.91,0,0,1,.22.71l0,.09v.06h-.08a0,0,0,0,0-.06,0s0,0,0,0a.09.09,0,0,0-.07,0l-.06,0h0v0h.08s.05,0,.05,0,.05,0,.06,0h.08v.07a2.61,2.61,0,0,1,0,.4c0,.13,0,.27,0,.4s0,.08,0,.11v0h0s0,0-.12,0l-.17,0h0v-.07h0l.05,0s.1,0,.08,0l.15,0v0l0,.1c0,.13-.07.28-.1.42l-.07.21,0,.09c-.39-.16-.25-.12-.27-.14l0-.05.28.13a8.85,8.85,0,0,1-.48.83l-.26-.19.07-.09.06,0c0,.05.06,0,.08.07a.1.1,0,0,0,0,.05s.06.07,0,.05h0l0,0-.15.15a2.27,2.27,0,0,1-.32.3h0l0,0c-.07-.06-.07-.11-.09-.1s0,0,0-.05l-.05-.09h0l0,0h0s.05.06,0,.07,0,.09,0,.09,0-.05,0,0a.1.1,0,0,0,.06.1l0,0h0l0,0-.19.12a3.23,3.23,0,0,1-.41.22l-.15-.3.07,0h.13c.14-.05.17.36.1.29s0,0,0,0l0,0-.16.06-.31.08-.31.08-.15,0s0,.08-.06-.15c0,0,0-.21,0-.18h0l.09,0,0,.35a6.08,6.08,0,0,1-.61,0h-.42s0,0,0,0,0-.17,0-.17,0-.11,0-.15h.12v0s0,.08,0,.09,0,0,0,.06,0,0,0,0,0,.05,0,.08a.16.16,0,0,1,0,.09h0a3.88,3.88,0,0,1-.61-.15l-.15-.05-.08,0h0l0-.06a.45.45,0,0,0,0-.11c.13-.26.07-.14.09-.17h0l.07,0h0s0,0,0,.05,0,.12,0,.14l-.08.14h0l0,0-.07,0,0,0h0s0,0,.1,0A.18.18,0,0,0,358,290l0,0s0,0-.14,0l-.13.16a1.26,1.26,0,0,0-1.51.24,1.28,1.28,0,0,0,0,1.57,2.22,2.22,0,0,0,.79.45,7.44,7.44,0,0,0,.95.28,6.09,6.09,0,0,0,2,.06,5.43,5.43,0,0,0,3.76-2.24,5.75,5.75,0,0,0,1-4,5.32,5.32,0,0,0-1.7-3.32,5.76,5.76,0,0,0-3-1.45,5,5,0,0,0-2.7.22,1.37,1.37,0,0,0-.63.84,1.15,1.15,0,0,0,.13.88,1.36,1.36,0,0,0,1,.7A1.58,1.58,0,0,0,358.3,284.36Z" transform="translate(3.94 -43.19)"/><path class="cls-7" d="M352.64,273.47a5.06,5.06,0,0,0,.7-.82,3.65,3.65,0,0,0,.44-2.8,3.16,3.16,0,0,0-1.07-1.64c-.55-.48-1.25-.85-1.9-1.43a3.58,3.58,0,0,1-.82-1,2,2,0,0,1-.19-1.4,2.72,2.72,0,0,1,.74-1.24c.33-.35.7-.65,1-1a3,3,0,0,0,.78-1.1,2.12,2.12,0,0,0,0-1.27,5.47,5.47,0,0,0-1.32-2.15,7,7,0,0,1-1.35-2,4.27,4.27,0,0,1-.22-2.09,4.47,4.47,0,0,1,1.39-2.65,3.21,3.21,0,0,1,.67-.47l.26-.11a9.59,9.59,0,0,0-.85.67,4.46,4.46,0,0,0-1.25,2.59,4.15,4.15,0,0,0,.24,2,6.73,6.73,0,0,0,1.33,1.89,5.71,5.71,0,0,1,1.4,2.26,2.4,2.4,0,0,1,0,1.45,3.36,3.36,0,0,1-.85,1.22c-.68.68-1.5,1.25-1.7,2.08a2.32,2.32,0,0,0,.9,2.16c.6.54,1.3.94,1.87,1.44a3.87,3.87,0,0,1,.73.84,3.35,3.35,0,0,1,.39.95,3.66,3.66,0,0,1-.55,2.92A2.31,2.31,0,0,1,352.64,273.47Z" transform="translate(3.94 -43.19)"/><path class="cls-7" d="M348.27,273.47a5.06,5.06,0,0,0,.7-.82,3.65,3.65,0,0,0,.44-2.8,3.16,3.16,0,0,0-1.07-1.64c-.55-.48-1.25-.85-1.9-1.43a3.58,3.58,0,0,1-.82-1,2,2,0,0,1-.19-1.4,2.72,2.72,0,0,1,.74-1.24c.33-.35.7-.65,1-1A3,3,0,0,0,348,261a2.12,2.12,0,0,0,0-1.27,5.47,5.47,0,0,0-1.32-2.15,7,7,0,0,1-1.35-2,4.27,4.27,0,0,1-.22-2.09,4.47,4.47,0,0,1,1.39-2.65,3.21,3.21,0,0,1,.67-.47l.26-.11a9.59,9.59,0,0,0-.85.67,4.46,4.46,0,0,0-1.25,2.59,4.15,4.15,0,0,0,.24,2,6.73,6.73,0,0,0,1.33,1.89,5.71,5.71,0,0,1,1.4,2.26,2.4,2.4,0,0,1,0,1.45,3.36,3.36,0,0,1-.85,1.22c-.68.68-1.5,1.25-1.7,2.08a2.32,2.32,0,0,0,.9,2.16c.6.54,1.3.94,1.87,1.44a3.87,3.87,0,0,1,.73.84,3.35,3.35,0,0,1,.39.95,3.66,3.66,0,0,1-.55,2.92A2.31,2.31,0,0,1,348.27,273.47Z" transform="translate(3.94 -43.19)"/><rect class="cls-7" x="391.81" y="209.21" width="2.88" height="43.57" transform="translate(-52.6 263.23) rotate(-39.95)"/><rect class="cls-7" x="395.09" y="204.48" width="2.88" height="43.57" transform="translate(-48.8 264.27) rotate(-39.95)"/><rect class="cls-7" x="368.45" y="268" width="52.39" height="2.88" transform="translate(-39.92 416.13) rotate(-57.74)"/><rect class="cls-7" x="375.53" y="268.79" width="51.37" height="2.88" transform="translate(-37.52 422.06) rotate(-57.74)"/><path class="cls-7" d="M410,242.49l-4.4,5.94a3.69,3.69,0,0,0,.43,4.87h0a3.7,3.7,0,0,0,4.19.61l5.91-3a3.67,3.67,0,0,0,2-2.64l.06-.36a3.68,3.68,0,0,0-1.35-3.54l-3-2.39A2.63,2.63,0,0,0,410,242.49Z" transform="translate(3.94 -43.19)"/><path class="cls-11" d="M410,242.49s.05-.14.23-.34a2.57,2.57,0,0,1,1-.67,2.76,2.76,0,0,1,1.88,0,3.27,3.27,0,0,1,1,.6l1,.78,1.12.86a9.63,9.63,0,0,1,1.2,1,3.93,3.93,0,0,1,1,3.33,4,4,0,0,1-2.13,3.15L412.71,253l-1.81.92a5,5,0,0,1-1.94.67,3.92,3.92,0,0,1-4.14-4.94,4.17,4.17,0,0,1,.74-1.42l.85-1.12,2.6-3.37a7.74,7.74,0,0,1,1-1.21,8.5,8.5,0,0,1-.85,1.32l-2.47,3.47a8.31,8.31,0,0,0-1.47,2.44,3.51,3.51,0,0,0,.61,3,3.43,3.43,0,0,0,3.06,1.32,4.41,4.41,0,0,0,1.76-.63l1.81-.92,3.58-1.8a3.52,3.52,0,0,0,1.89-2.77,3.47,3.47,0,0,0-.8-2.95,9.69,9.69,0,0,0-1.13-1l-1.1-.89-1-.81a2.89,2.89,0,0,0-.92-.58,2.58,2.58,0,0,0-1.71,0A3.51,3.51,0,0,0,410,242.49Z" transform="translate(3.94 -43.19)"/><path class="cls-7" d="M365.55,296.79s3.42-7.26,16.85-7.24l6.18,0s12.07,2.6,13.52,7.26Z" transform="translate(3.94 -43.19)"/><path class="cls-7" d="M373.88,206.81l2.79,10.95a.66.66,0,0,0,1.15.26l8.29-8.49a.66.66,0,0,0-.4-1.07L374.62,206A.65.65,0,0,0,373.88,206.81Z" transform="translate(3.94 -43.19)"/><path class="cls-11" d="M373.88,206.81s-.07-.08-.05-.28a.7.7,0,0,1,.53-.61,1.36,1.36,0,0,1,.6,0l.67.13,1.64.33,4.35.91,2.63.56,1.41.3a1,1,0,0,1,.77.52.92.92,0,0,1-.12,1h0l-3.69,3.79L378,218.2h0a.9.9,0,0,1-1.53-.26c-.14-.48-.22-.87-.33-1.3-.2-.83-.4-1.62-.58-2.38-.35-1.48-.67-2.79-.94-3.92s-.43-1.89-.58-2.57a4.11,4.11,0,0,1-.16-.95,3.7,3.7,0,0,1,.31.89l.72,2.54c.3,1.12.65,2.43,1,3.89.2.75.41,1.54.62,2.37l.33,1.24a.42.42,0,0,0,.71.11h0l4.59-4.72,3.7-3.77h0a.43.43,0,0,0-.36-.7l-1.4-.32-2.62-.6-4.33-1-1.63-.4-.66-.17a1.34,1.34,0,0,0-.52-.08.62.62,0,0,0-.48.46C373.87,206.71,373.9,206.81,373.88,206.81Z" transform="translate(3.94 -43.19)"/><path class="cls-7" d="M365.68,238.17c5.49-7.36,8.59-14.83,8.08-22.48l-10.31-9.93c-10-3.33-23.75,7.16-23.75,7.16S343.11,231.42,365.68,238.17Z" transform="translate(3.94 -43.19)"/><path class="cls-7" d="M370.67,219.36l-11.29-10.59,9.31-9.93a7.51,7.51,0,0,1,10.62-.34l.32.3a7.51,7.51,0,0,1,.34,10.62Z" transform="translate(3.94 -43.19)"/><path class="cls-11" d="M373.06,215.34a5.71,5.71,0,0,1-2.18-.35,12.74,12.74,0,0,1-7.81-6.89,5.71,5.71,0,0,1-.62-2.11c.09,0,.33.78.95,1.95a14.48,14.48,0,0,0,3.18,4.05,14.69,14.69,0,0,0,4.41,2.66A19.88,19.88,0,0,1,373.06,215.34Z" transform="translate(3.94 -43.19)"/><path class="cls-11" d="M413.58,246.07a.93.93,0,1,1-.93-.93A.93.93,0,0,1,413.58,246.07Z" transform="translate(3.94 -43.19)"/><path class="cls-11" d="M379.13,213.85a.93.93,0,1,1-.93-.93A.93.93,0,0,1,379.13,213.85Z" transform="translate(3.94 -43.19)"/><path class="cls-11" d="M382.66,210.24a.93.93,0,1,1-.93-.93A.93.93,0,0,1,382.66,210.24Z" transform="translate(3.94 -43.19)"/><path class="cls-11" d="M409.8,249.43a.93.93,0,1,1-.93-.93A.93.93,0,0,1,409.8,249.43Z" transform="translate(3.94 -43.19)"/><polygon class="cls-2" points="376.87 269.82 376.6 431.17 226.11 431.17 226.11 269.38 216.47 269.38 216.47 431.17 216.47 440.14 226.11 440.14 376.6 440.14 386.24 440.14 386.24 431.17 386.52 269.82 376.87 269.82"/><path class="cls-7" d="M372.93,313l9.65,0h.05v0c0,21.5-.06,83.1-.13,170.31v.2h-.2l-169.78.05h-.25v-.25c0-47.28,0-98.73,0-152.12V312.32h10.17v.26c0,57.08,0,111.56,0,161.79l-.24-.24,150.49.05-.19.19c.28-99.57.46-159.85.46-161.35,0,1.51,0,61.79-.09,161.35v.19h-.19l-150.49.05h-.24v-.24c0-50.23,0-104.72,0-161.79l.26.26h-9.65l.26-.26v18.63c0,53.39,0,104.84,0,152.12l-.25-.25,169.78.05-.2.2c.22-87.22.37-148.81.43-170.31l.05.05Z" transform="translate(3.94 -43.19)"/><rect class="cls-16" x="197.54" y="253.6" width="218.04" height="17.4"/><path class="cls-17" d="M248.27,296.47l-.55.13c-.36.08-.9.16-1.59.31-1.38.28-3.36.76-5.78,1.47s-5.26,1.67-8.39,2.79-6.58,2.38-10.27,3.51a61,61,0,0,1-10.61,2.3,37.63,37.63,0,0,1-8.86.06,26.77,26.77,0,0,1-5.83-1.33,15.14,15.14,0,0,1-1.51-.6l-.51-.24s.19.05.54.18.85.35,1.53.54a28.44,28.44,0,0,0,5.81,1.23,38,38,0,0,0,8.8-.13,63.39,63.39,0,0,0,10.55-2.32c3.67-1.12,7.12-2.38,10.26-3.48s6-2.05,8.43-2.73,4.43-1.13,5.82-1.37c.69-.14,1.24-.2,1.6-.26S248.27,296.47,248.27,296.47Z" transform="translate(3.94 -43.19)"/><path class="cls-17" d="M359.47,312.54l-.22-.24a9,9,0,0,0-.63-.7,11.94,11.94,0,0,0-2.89-2.2,16.36,16.36,0,0,0-5.43-1.82,23.35,23.35,0,0,0-7.59.19,78.81,78.81,0,0,0-9,2.31,48.45,48.45,0,0,1-10.44,2.19,20.91,20.91,0,0,1-5.77-.38,28.3,28.3,0,0,1-5.72-1.92c-3.75-1.65-7.36-3.89-11.37-5.51-8.05-3.24-16.56-3.49-23.94-2.54A84.26,84.26,0,0,0,257.31,307c-5.3,2-9.47,4-12.37,5.26l-3.33,1.51-1.17.51s.39-.21,1.14-.57l3.3-1.57c2.88-1.34,7-3.29,12.34-5.35a83.46,83.46,0,0,1,19.24-5.19c7.42-1,16-.73,24.1,2.54,4,1.63,7.65,3.88,11.37,5.52a28.81,28.81,0,0,0,5.66,1.91,20.35,20.35,0,0,0,5.69.39,48.54,48.54,0,0,0,10.38-2.15,77.84,77.84,0,0,1,9-2.28,23.12,23.12,0,0,1,7.66-.14,16.12,16.12,0,0,1,5.46,1.88,11.5,11.5,0,0,1,2.87,2.26A8.07,8.07,0,0,1,359.47,312.54Z" transform="translate(3.94 -43.19)"/><path class="cls-17" d="M410.37,302.17a48.28,48.28,0,0,1-7.09,2.16c-1.12.26-2.35.53-3.68.72s-2.76.38-4.27.55a60.3,60.3,0,0,1-19.61-1.43c-1.47-.39-2.87-.73-4.15-1.17s-2.47-.83-3.54-1.25a48.24,48.24,0,0,1-6.7-3.17,2.75,2.75,0,0,1,.47.2l1.33.64c.57.29,1.28.63,2.12,1s1.78.79,2.86,1.16,2.24.83,3.54,1.21,2.67.76,4.14,1.13a62,62,0,0,0,19.52,1.43c1.5-.16,2.93-.28,4.26-.52s2.56-.44,3.67-.68,2.12-.51,3-.73,1.63-.45,2.24-.65l1.41-.44A2.48,2.48,0,0,1,410.37,302.17Z" transform="translate(3.94 -43.19)"/><path class="cls-7" d="M422.06,454.89s-4.16-28.59-3.81-45.22,0-35.35,0-35.35h1.92s-1.3,33,.11,52.93,5.13,27.64,5.13,27.64h-3.33" transform="translate(3.94 -43.19)"/><path class="cls-11" d="M434.45,342.16a5.1,5.1,0,0,0-1.75-2.56c-1.22-.77-2.81-.45-4.17,0-5.79,2.05-10.92,12.84-13.26,18.52l7.69,25.9C436.83,371.18,439.23,354.29,434.45,342.16Z" transform="translate(3.94 -43.19)"/><path class="cls-7" d="M432.25,340.65a1.79,1.79,0,0,1-.11.34c-.1.25-.22.56-.38.94-.34.81-.81,2-1.37,3.47-1.13,2.94-2.57,7.05-3.86,11.68s-2.17,8.9-2.71,12c-.27,1.55-.48,2.81-.61,3.68-.07.41-.12.74-.16,1a1.5,1.5,0,0,1-.08.35,1.22,1.22,0,0,1,0-.36c0-.27.06-.6.11-1,.09-.88.27-2.14.51-3.7a110.19,110.19,0,0,1,6.59-23.73c.59-1.46,1.1-2.64,1.47-3.44.18-.37.32-.68.43-.92A.92.92,0,0,1,432.25,340.65Z" transform="translate(3.94 -43.19)"/><path class="cls-11" d="M419.54,390.26a23.47,23.47,0,0,1-11.85-19.69c-.28-5.75,1.49-11.39,3.49-16.78a2.18,2.18,0,0,1,.81-1.22,2.05,2.05,0,0,1,2,.31c5.24,3,8.41,8.66,10.09,14.45a29.39,29.39,0,0,1,1.19,11.88,19.69,19.69,0,0,1-5.69,11.05" transform="translate(3.94 -43.19)"/><path class="cls-7" d="M419.54,390.26a1.6,1.6,0,0,1,0-.35c0-.26,0-.59,0-1,0-.86,0-2.11-.11-3.65a99,99,0,0,0-1.34-12c-.8-4.64-1.77-8.79-2.48-11.8-.35-1.47-.64-2.67-.85-3.56l-.22-1a1.45,1.45,0,0,1-.06-.34,1.68,1.68,0,0,1,.12.33c.07.25.17.57.28.95.24.83.56,2,.95,3.53.77,3,1.78,7.14,2.58,11.8a86.84,86.84,0,0,1,1.25,12c0,1.55,0,2.8,0,3.66,0,.4,0,.73,0,1A1.22,1.22,0,0,1,419.54,390.26Z" transform="translate(3.94 -43.19)"/><g class="cls-12"><path d="M419.54,390.26a23.47,23.47,0,0,1-11.85-19.69c-.28-5.75,1.49-11.39,3.49-16.78a2.18,2.18,0,0,1,.81-1.22,2.05,2.05,0,0,1,2,.31c5.24,3,8.41,8.66,10.09,14.45a29.39,29.39,0,0,1,1.19,11.88,19.69,19.69,0,0,1-5.69,11.05" transform="translate(3.94 -43.19)"/></g><path class="cls-11" d="M427.67,434c7.09,1.56,12.93,6.56,19.77,9,4.53,1.61,9.64,2.18,13.26,5.34-.87-2.19-2.92-3.65-4.92-4.89a88.24,88.24,0,0,0-17.92-8.55c-3.22-1.11-6.71-2-10-1.12" transform="translate(3.94 -43.19)"/><path class="cls-11" d="M417.42,440.32c-8.88-.14-18.23-7.7-27.07-8.15,9.25-3,22.49-.56,27.07,8.15" transform="translate(3.94 -43.19)"/><path class="cls-11" d="M420.89,419a28.93,28.93,0,0,1,14.2-1A85.84,85.84,0,0,1,449,421.81c-.46-3.08-2.95-5.4-5.29-7.45a36.64,36.64,0,0,0-5.57-4.28,12.39,12.39,0,0,0-6.67-1.88,10.61,10.61,0,0,0-7.37,3.71,12.24,12.24,0,0,0-3.16,7.1" transform="translate(3.94 -43.19)"/><path class="cls-11" d="M402.66,409.21c-5.59-4.77-14.06-4.31-21.41-4.14a174.34,174.34,0,0,1,33.2,20.69C414.75,420.56,409.72,415.24,402.66,409.21Z" transform="translate(3.94 -43.19)"/><g class="cls-12"><path d="M402.66,409.21c-5.59-4.77-14.06-4.31-21.41-4.14a174.34,174.34,0,0,1,33.2,20.69C414.75,420.56,409.72,415.24,402.66,409.21Z" transform="translate(3.94 -43.19)"/></g><path class="cls-11" d="M423.4,402.62a62.5,62.5,0,0,1,8.6-5c2.94-1.34,5.69-3.47,8.53-5,3.68-2,6.88-4.77,10.26-7.24s7.1-4.71,11.24-5.36a22,22,0,0,0-10.23.59,66.94,66.94,0,0,0-9.62,3.74c-4.36,2-8.8,4-12.36,7.17s-6.79,6.34-6.42,11.11" transform="translate(3.94 -43.19)"/><path class="cls-7" d="M447.28,440.32a1,1,0,0,1-.28-.12l-.77-.4c-.67-.36-1.63-.88-2.84-1.49-.6-.32-1.26-.65-2-1s-1.49-.7-2.31-1.06a34.3,34.3,0,0,0-5.47-1.91,11.65,11.65,0,0,0-5.7-.14,16.33,16.33,0,0,0-2.41.72,12.67,12.67,0,0,0-1.95,1,12.94,12.94,0,0,0-2.45,2c-.51.55-.76.89-.79.87a1,1,0,0,1,.16-.26,6.89,6.89,0,0,1,.54-.69,11.59,11.59,0,0,1,2.42-2.13,11.73,11.73,0,0,1,2-1.05,16.38,16.38,0,0,1,2.45-.76,11.84,11.84,0,0,1,5.84.12,32,32,0,0,1,5.51,1.95c.82.36,1.59.72,2.3,1.09s1.38.69,2,1c1.2.63,2.14,1.19,2.79,1.58l.75.45A1.12,1.12,0,0,1,447.28,440.32Z" transform="translate(3.94 -43.19)"/><path class="cls-7" d="M410.8,435.92a2.27,2.27,0,0,1,.56.16,12.48,12.48,0,0,1,1.45.63,17.43,17.43,0,0,1,4.24,3,17.82,17.82,0,0,1,3.18,4.12,13.3,13.3,0,0,1,.69,1.42,1.86,1.86,0,0,1,.18.55c-.05,0-.38-.73-1.06-1.86a20.17,20.17,0,0,0-3.2-4,19.8,19.8,0,0,0-4.13-3C411.54,436.27,410.77,436,410.8,435.92Z" transform="translate(3.94 -43.19)"/><path class="cls-7" d="M391.15,408.76l.38.11,1.07.38,1.68.62c.65.24,1.37.6,2.17,1A51,51,0,0,1,408,418.2a55.5,55.5,0,0,1,5.39,5.31,60.43,60.43,0,0,1,3.83,4.85c1,1.44,1.78,2.63,2.31,3.46l.61.95a2.18,2.18,0,0,1,.2.34,1.86,1.86,0,0,1-.25-.31c-.16-.21-.38-.52-.66-.92-.56-.81-1.35-2-2.39-3.4s-2.33-3.05-3.86-4.79a58.73,58.73,0,0,0-5.38-5.26,53.69,53.69,0,0,0-11.45-7.4c-.8-.37-1.5-.74-2.14-1l-1.66-.67-1-.43A1.55,1.55,0,0,1,391.15,408.76Z" transform="translate(3.94 -43.19)"/><path class="cls-7" d="M434.21,414a3,3,0,0,1-.71-.09l-.82-.15c-.32-.06-.69-.06-1.09-.1a11,11,0,0,0-8.88,3.26,12.67,12.67,0,0,0-1.79,2.21,17.51,17.51,0,0,0-1.22,2.33,2.34,2.34,0,0,1,.18-.69,9.59,9.59,0,0,1,.85-1.76,11.62,11.62,0,0,1,1.77-2.29,10.81,10.81,0,0,1,9.11-3.29c.41.06.78.07,1.1.15l.81.2A3.47,3.47,0,0,1,434.21,414Z" transform="translate(3.94 -43.19)"/><path class="cls-7" d="M443.14,386.34a2.17,2.17,0,0,1-.34.21l-1,.54c-.86.46-2.1,1.15-3.61,2s-3.27,2-5.14,3.35a43.07,43.07,0,0,0-5.74,4.81,14.77,14.77,0,0,0-2.35,3c-.58,1.12-1.14,2.2-1.65,3.23a59.16,59.16,0,0,0-2.47,5.62,34.2,34.2,0,0,0-1.2,3.95c-.23.95-.31,1.49-.34,1.48a1.62,1.62,0,0,1,0-.39q0-.39.18-1.11a29.48,29.48,0,0,1,1.11-4,53.49,53.49,0,0,1,2.42-5.67c.51-1,1.06-2.13,1.64-3.25a14.52,14.52,0,0,1,2.4-3.12,42,42,0,0,1,5.8-4.83c1.9-1.34,3.68-2.43,5.2-3.3s2.78-1.52,3.66-1.95l1-.49A1.36,1.36,0,0,1,443.14,386.34Z" transform="translate(3.94 -43.19)"/><path class="cls-7" d="M418.24,413.22a4.18,4.18,0,0,1-.18-.75c-.1-.55-.23-1.23-.39-2.05a52.4,52.4,0,0,0-4.22-13.05c-.34-.76-.63-1.39-.87-1.9a3.46,3.46,0,0,1-.28-.71,3.86,3.86,0,0,1,.4.66c.24.43.57,1.07,1,1.86a47,47,0,0,1,2.64,6.39,46,46,0,0,1,1.6,6.72c.14.87.24,1.58.29,2.07A3.93,3.93,0,0,1,418.24,413.22Z" transform="translate(3.94 -43.19)"/><path class="cls-11" d="M417.6,393a24.16,24.16,0,0,0-2.89-9.59,31.66,31.66,0,0,0-21.45-16L413.12,397l2.56,5.28A15.17,15.17,0,0,0,417.6,393Z" transform="translate(3.94 -43.19)"/><rect class="cls-10" x="399.01" y="401.42" width="55.93" height="9.91"/><polygon class="cls-10" points="403.19 409.36 410.68 440.12 445.08 440.12 450.76 409.36 403.19 409.36"/><path class="cls-7" d="M451,454.53c0,.11-12.61.2-28.17.2s-28.17-.09-28.17-.2,12.61-.2,28.17-.2S451,454.42,451,454.53Z" transform="translate(3.94 -43.19)"/></g></svg>